<svg width="50" height="44" viewBox="0 0 50 44" fill="none" xmlns="http://www.w3.org/2000/svg">
<path d="M25.0179 0.00134277C23.814 0.00134277 22.7011 0.620379 22.1105 1.65211L0.441852 38.9548C-0.148699 39.9865 -0.125985 41.2934 0.464566 42.3251C1.10054 43.4027 2.34979 43.9988 3.53089 43.9988H46.4821C47.6632 43.9988 48.9125 43.4027 49.5484 42.3251C50.139 41.2934 50.139 39.9865 49.5484 38.9548L27.9025 1.65211C27.3119 0.620379 26.199 0.00134277 25.0179 0.00134277ZM25.0179 1.28527C25.722 1.28527 26.4715 1.69796 26.8122 2.29407L48.4355 39.6197C48.7989 40.2387 48.7989 41.0641 48.4355 41.6831C48.1175 42.2105 47.1862 42.7149 46.4821 42.7149H3.53089C2.82677 42.7149 1.89552 42.2105 1.57753 41.6831C1.21411 41.0641 1.21411 40.2387 1.57753 39.6197L23.2008 2.29407C23.5642 1.69796 24.291 1.28527 25.0179 1.28527ZM25.0179 14.2392C24.6544 14.2392 24.3592 14.5143 24.3592 14.8812V29.761C24.3592 30.1278 24.6544 30.4029 25.0179 30.4029C25.3586 30.4029 25.6538 30.1278 25.6538 29.761V14.8812C25.6538 14.5143 25.3586 14.2392 25.0179 14.2392ZM25.0179 34.9425C24.291 34.9425 23.7232 35.5157 23.7232 36.2265C23.7232 36.9601 24.291 37.5333 25.0179 37.5333C25.722 37.5333 26.2898 36.9601 26.2898 36.2265C26.2898 35.5157 25.722 34.9425 25.0179 34.9425Z" fill="#9F9F9F"/>
</svg>
