<svg width="21" height="15" viewBox="0 0 21 15" fill="none" xmlns="http://www.w3.org/2000/svg">
<g clip-path="url(#clip0_54_639)">
<path d="M20.7038 1.65373C20.2691 0.866586 19.5523 0.5 18.4495 0.5H18.4225C14.639 0.520241 10.8553 0.533547 7.07137 0.53992L2.53115 0.552851C2.40288 0.552851 2.27441 0.557912 2.14575 0.568032C0.822402 0.672048 0.000586592 1.51317 0 2.76418C0 6.60096 0.0105587 9.53872 0.0393017 12.2898C0.0391256 12.6543 0.12601 13.0139 0.293296 13.3412C0.725028 14.125 1.46648 14.4921 2.53115 14.4927C4.42349 14.4775 6.31642 14.4736 8.20877 14.4702L11.6697 14.4623C12.4639 14.4601 13.2585 14.4575 14.0536 14.4545C14.5228 14.4516 14.9892 14.4545 15.4567 14.4545C16.5747 14.4578 17.7321 14.4595 18.863 14.414C20.1577 14.3611 20.9941 13.5043 20.9947 12.2308C20.9947 8.41084 20.9847 5.47309 20.9554 2.70458C20.9567 2.34044 20.8706 1.98089 20.7038 1.65373ZM19.2097 1.41141L10.4988 8.00715L1.74277 1.46257L19.2097 1.41141ZM18.4958 13.5464H18.4471L2.48539 13.5931H2.47366C1.47059 13.5931 1.02184 13.1635 1.01832 12.2015L0.986648 2.09229L1.76506 2.64835C1.8548 2.71133 1.92989 2.76418 2.0038 2.81703L2.86668 3.46418C5.20366 5.2079 7.54025 6.95087 9.87645 8.69309C10.4672 9.13446 10.5217 9.13277 11.1142 8.68635L18.9475 2.76305C19.0214 2.70683 19.0971 2.6506 19.1962 2.58313L19.9782 2.02088L20.0104 12.0778C20.0128 13.132 19.5887 13.5431 18.4958 13.5464Z" fill="#1E9DFA"/>
</g>
<defs>
<clipPath id="clip0_54_639">
<rect width="21" height="14" fill="white" transform="translate(0 0.5)"/>
</clipPath>
</defs>
</svg>
