<svg width="21" height="21" viewBox="0 0 21 21" fill="none" xmlns="http://www.w3.org/2000/svg">
<path d="M15.9169 20.1835C15.2541 20.1835 14.5032 20.0401 13.8544 19.8732C12.2204 19.4532 10.5666 18.7032 9.31598 17.8107C6.61504 15.8935 4.52629 13.5985 3.24941 12.0113C2.29129 10.8198 1.46066 9.19884 0.969413 7.57041C0.667538 6.5701 0.266288 4.78322 0.964726 4.05291L3.49598 1.40166C4.37629 0.481972 5.99535 0.65166 7.18129 1.78416C7.20778 1.8091 7.23194 1.8364 7.25348 1.86572C7.27879 1.90135 7.89285 2.74791 8.43848 3.69291C9.34879 5.27166 9.52504 6.16791 9.02535 6.69291L7.8516 7.92103C7.92942 8.02978 8.01004 8.14322 8.08598 8.2651C9.2654 10.1476 10.8955 11.7065 12.8288 12.8007C12.9554 12.872 13.0735 12.9479 13.1869 13.021L14.3607 11.7938C14.8604 11.2717 15.7669 11.4067 17.3813 12.2457C18.3497 12.7482 19.2225 13.3238 19.2563 13.3482C19.2867 13.3684 19.3153 13.3913 19.3416 13.4167C19.8628 13.9 20.2211 14.5332 20.3672 15.2288C20.5022 15.946 20.3279 16.621 19.8872 17.0813L17.356 19.7317C17.0494 20.0626 16.5188 20.1835 15.9169 20.1835ZM1.85441 4.8901C1.76066 5.05791 1.7166 5.89228 2.17785 7.35947C2.63066 8.79853 3.36754 10.2179 4.1991 11.252C5.42723 12.7792 7.43441 14.9851 10.0219 16.8217C11.1122 17.596 12.5682 18.2645 14.0166 18.6554C15.5166 19.0613 16.3229 18.9863 16.4897 18.8842L19.0154 16.2432C19.2413 16.007 19.2141 15.6507 19.1785 15.4585C19.0815 15.0311 18.8611 14.6415 18.5447 14.3382C17.1619 13.4307 15.6441 12.6948 15.1847 12.706L13.9266 14.0185C13.6032 14.356 13.065 14.3935 12.6188 14.102L12.5625 14.0626C12.451 13.9904 12.346 13.9229 12.2429 13.8638C10.1323 12.6699 8.3527 10.9686 7.06504 8.91385C7.00785 8.8201 6.94129 8.72635 6.87098 8.6326L6.80348 8.53885C6.49973 8.10666 6.51285 7.57041 6.83348 7.23478L8.09254 5.92228C8.08317 5.46478 7.28067 3.97885 6.31129 2.64103C5.65504 2.0401 4.76723 1.85916 4.38754 2.25666L1.85441 4.8901Z" fill="#1E9DFA"/>
</svg>
