<svg width="44" height="48" viewBox="0 0 44 48" fill="none" xmlns="http://www.w3.org/2000/svg">
<path d="M16.1 14.7C15.8 14.7 15.6 14.7 15.3 14.7C15.1 14.7 14.8 14.7 14.5 14.7C9.8 14.7 6.4 13.5 6.3 13.4L5.7 13.2L5.6 12.6C5.4 9.8 7.7 7.7 9.4 6.5C9.7 3.1 12.2 0.5 15.2 0.5C18.2 0.5 20.7 3.1 21 6.5C22.7 7.6 25 9.8 24.8 12.6L24.7 13.2L24.1 13.4C24.1 13.4 20.8 14.7 16.1 14.7ZM15.3 12.7C15.6 12.7 15.9 12.7 16.1 12.7C19.3 12.7 21.8 12.1 23 11.7C22.7 9.9 20.7 8.4 19.7 7.8L19.3 7.5V7C19.2 4.4 17.5 2.4 15.4 2.4C13.3 2.4 11.6 4.4 11.5 7V7.5L11.1 7.8C10.2 8.4 8.1 9.9 7.8 11.7C8.9 12.1 11.7 12.8 15.3 12.7Z" fill="url(#paint0_linear_47_257)"/>
<path d="M8 24.7999L5.4 22.2999L6.7 20.9L7.9 22L12 17.2L13.5 18.5L8 24.7999Z" fill="url(#paint1_linear_47_257)"/>
<path d="M8 34.3999L5.4 31.8999L6.7 30.4999L7.9 31.5999L12 26.8999L13.5 28.0999L8 34.3999Z" fill="url(#paint2_linear_47_257)"/>
<path d="M8 44.1L5.4 41.6L6.7 40.1L7.9 41.2L12 36.5L13.5 37.8L8 44.1Z" fill="url(#paint3_linear_47_257)"/>
<path d="M18.6 40.4V32.1L35 8.39998C35.8 7.29998 37.1 6.59998 38.4 6.59998C39.2 6.59998 40.1 6.89998 40.8 7.29998L41.7 7.99998C43.6 9.29998 44.1 11.9 42.8 13.8L26.4 37.4L18.6 40.4ZM20.6 32.7V37.6L25.1 35.9L41.1 12.8C41.8 11.8 41.5 10.4 40.5 9.69998L39.6 8.99998C38.6 8.29998 37.2 8.59998 36.5 9.59998L20.6 32.7Z" fill="url(#paint4_linear_47_257)"/>
<path d="M40.9983 14.6267L34.8318 10.3577L33.6934 12.0021L39.8599 16.2711L40.9983 14.6267Z" fill="url(#paint5_linear_47_257)"/>
<path d="M30 47.5H0.599998V9.90002H6.7V11.9H2.5V45.5H28.1V32.1H30V47.5Z" fill="url(#paint6_linear_47_257)"/>
<path d="M30 18.7H28.1V11.9H23.7V9.90002H30V18.7Z" fill="url(#paint7_linear_47_257)"/>
<defs>
<linearGradient id="paint0_linear_47_257" x1="6.0937" y1="0.499998" x2="26.487" y2="3.56822" gradientUnits="userSpaceOnUse">
<stop stop-color="#1598F9"/>
<stop offset="1" stop-color="#007DD8"/>
</linearGradient>
<linearGradient id="paint1_linear_47_257" x1="5.61316" y1="17.2" x2="14.2786" y2="18.2263" gradientUnits="userSpaceOnUse">
<stop stop-color="#1598F9"/>
<stop offset="1" stop-color="#007DD8"/>
</linearGradient>
<linearGradient id="paint2_linear_47_257" x1="5.61316" y1="26.8999" x2="14.2754" y2="27.9396" gradientUnits="userSpaceOnUse">
<stop stop-color="#1598F9"/>
<stop offset="1" stop-color="#007DD8"/>
</linearGradient>
<linearGradient id="paint3_linear_47_257" x1="5.61316" y1="36.5" x2="14.2786" y2="37.5264" gradientUnits="userSpaceOnUse">
<stop stop-color="#1598F9"/>
<stop offset="1" stop-color="#007DD8"/>
</linearGradient>
<linearGradient id="paint4_linear_47_257" x1="19.2559" y1="6.59997" x2="46.1137" y2="8.80092" gradientUnits="userSpaceOnUse">
<stop stop-color="#1598F9"/>
<stop offset="1" stop-color="#007DD8"/>
</linearGradient>
<linearGradient id="paint5_linear_47_257" x1="34.994" y1="10.47" x2="39.0493" y2="16.7911" gradientUnits="userSpaceOnUse">
<stop stop-color="#1598F9"/>
<stop offset="1" stop-color="#007DD8"/>
</linearGradient>
<linearGradient id="paint6_linear_47_257" x1="1.37368" y1="9.90002" x2="33.0282" y2="12.6506" gradientUnits="userSpaceOnUse">
<stop stop-color="#1598F9"/>
<stop offset="1" stop-color="#007DD8"/>
</linearGradient>
<linearGradient id="paint7_linear_47_257" x1="23.8658" y1="9.90002" x2="30.6571" y2="10.4403" gradientUnits="userSpaceOnUse">
<stop stop-color="#1598F9"/>
<stop offset="1" stop-color="#007DD8"/>
</linearGradient>
</defs>
</svg>
