<svg width="42" height="48" viewBox="0 0 42 48" fill="none" xmlns="http://www.w3.org/2000/svg">
<path d="M21 47.5C9.59999 47.5 0.299988 38.2 0.299988 26.8C0.299988 15.3 9.59999 6 21 6C32.4 6 41.7 15.3 41.7 26.7C41.7 38.2 32.4 47.5 21 47.5ZM21 8C10.6 8 2.19999 16.4 2.19999 26.8C2.19999 37.2 10.6 45.6 21 45.6C31.4 45.6 39.8 37.2 39.8 26.8C39.8 16.4 31.4 8 21 8Z" fill="url(#paint0_linear_47_313)"/>
<path d="M22 7H20V12.6H22V7Z" fill="url(#paint1_linear_47_313)"/>
<path d="M22 40.9H20V46.5H22V40.9Z" fill="url(#paint2_linear_47_313)"/>
<path d="M40.8 25.8H35.2V27.8H40.8V25.8Z" fill="url(#paint3_linear_47_313)"/>
<path d="M6.79998 25.8H1.19998V27.8H6.79998V25.8Z" fill="url(#paint4_linear_47_313)"/>
<path d="M28.8 27.7H20.5L12.6 15.8L14.3 14.7L21.5 25.8H28.8V27.7Z" fill="url(#paint5_linear_47_313)"/>
<path d="M26.1 7H24.1V5.6C24.1 3.9 22.7 2.5 21 2.5C19.3 2.5 17.9 3.9 17.9 5.6V7H15.9V5.6C15.9 2.8 18.2 0.5 21 0.5C23.8 0.5 26.1 2.8 26.1 5.6V7Z" fill="url(#paint6_linear_47_313)"/>
<defs>
<linearGradient id="paint0_linear_47_313" x1="1.38946" y1="6" x2="45.7555" y2="10.9186" gradientUnits="userSpaceOnUse">
<stop stop-color="#1598F9"/>
<stop offset="1" stop-color="#007DD8"/>
</linearGradient>
<linearGradient id="paint1_linear_47_313" x1="20.0526" y1="7" x2="22.2188" y2="7.08598" gradientUnits="userSpaceOnUse">
<stop stop-color="#1598F9"/>
<stop offset="1" stop-color="#007DD8"/>
</linearGradient>
<linearGradient id="paint2_linear_47_313" x1="20.0526" y1="40.9" x2="22.2188" y2="40.986" gradientUnits="userSpaceOnUse">
<stop stop-color="#1598F9"/>
<stop offset="1" stop-color="#007DD8"/>
</linearGradient>
<linearGradient id="paint3_linear_47_313" x1="35.3474" y1="25.8" x2="40.886" y2="27.5235" gradientUnits="userSpaceOnUse">
<stop stop-color="#1598F9"/>
<stop offset="1" stop-color="#007DD8"/>
</linearGradient>
<linearGradient id="paint4_linear_47_313" x1="1.34735" y1="25.8" x2="6.88603" y2="27.5235" gradientUnits="userSpaceOnUse">
<stop stop-color="#1598F9"/>
<stop offset="1" stop-color="#007DD8"/>
</linearGradient>
<linearGradient id="paint5_linear_47_313" x1="13.0263" y1="14.6999" x2="30.2696" y2="17.0879" gradientUnits="userSpaceOnUse">
<stop stop-color="#1598F9"/>
<stop offset="1" stop-color="#007DD8"/>
</linearGradient>
<linearGradient id="paint6_linear_47_313" x1="16.1684" y1="0.499999" x2="26.907" y2="2.37269" gradientUnits="userSpaceOnUse">
<stop stop-color="#1598F9"/>
<stop offset="1" stop-color="#007DD8"/>
</linearGradient>
</defs>
</svg>
