<svg width="74" height="48" viewBox="0 0 74 48" fill="none" xmlns="http://www.w3.org/2000/svg">
<path d="M11.4078 23.3572L10.3414 24.8421C8.9461 26.7845 9.40157 29.493 11.3555 30.88C12.1203 31.4229 13.0039 31.6838 13.8789 31.6838C14.1441 31.6838 14.4072 31.6528 14.6674 31.6055C14.5551 32.1298 14.5352 32.6746 14.6266 33.2192C14.818 34.3597 15.4445 35.3577 16.3914 36.0295C17.1383 36.5591 18.0125 36.8356 18.9117 36.8356C19.1531 36.8356 19.3961 36.8158 19.6383 36.7754C19.8882 36.734 20.1277 36.6633 20.362 36.582C20.3548 37.9422 20.9816 39.2863 22.1774 40.1347C22.9242 40.6644 23.7985 40.9409 24.6977 40.9409C24.9391 40.9409 25.1821 40.9211 25.4242 40.8807C25.9719 40.7899 26.4835 40.5945 26.9456 40.319C27.1159 41.437 27.7168 42.4888 28.7133 43.1962C29.4781 43.7391 30.3617 44 31.2367 44C32.5969 44 33.9383 43.3694 34.7875 42.1877L36.0111 40.4826L38.9649 42.538C39.7047 43.0537 40.5672 43.3224 41.4532 43.3224C41.7071 43.3224 41.9625 43.3003 42.218 43.2556C43.3633 43.0545 44.3618 42.4227 45.0289 41.4752C45.6427 40.6034 45.868 39.5847 45.7765 38.5999C46.393 38.9176 47.0689 39.087 47.761 39.087C48.0149 39.087 48.2711 39.0649 48.5266 39.0203C49.6719 38.8191 50.6704 38.1869 51.3375 37.2402C51.9598 36.357 52.2078 35.2981 52.0766 34.2359C52.5639 34.4195 53.0762 34.5247 53.6 34.5247C53.854 34.5247 54.1102 34.5026 54.3657 34.4579C55.511 34.2568 56.5094 33.6246 57.1766 32.6779C57.7853 31.8139 58.0115 30.8055 57.9268 29.8288C58.604 30.2322 59.3625 30.4529 60.1438 30.4529C60.3985 30.4529 60.654 30.4307 60.9094 30.3861C62.0547 30.1853 63.0532 29.5532 63.7204 28.6061C64.3876 27.659 64.6438 26.5103 64.4415 25.3718C64.3012 24.5791 63.9391 23.8658 63.4174 23.2768L68.6977 19.1056C69.029 18.8442 69.0977 18.3712 68.8555 18.0268L59.261 4.40591C59.1391 4.23311 58.9532 4.11545 58.7446 4.07895C58.536 4.04283 58.3204 4.09021 58.1469 4.21059L56.2665 5.51959C54.0829 7.03868 51.3118 7.33419 48.8547 6.31098L45.193 4.78529C42.5226 3.67282 39.5779 3.75907 37.0092 4.93766C34.4193 3.75097 31.4452 3.68724 28.8071 4.78529L25.1453 6.31098C22.6883 7.33458 19.9164 7.03907 17.7336 5.51959L15.8531 4.21059C15.6797 4.09021 15.4649 4.04283 15.2555 4.07895C15.0469 4.11545 14.8609 4.23311 14.7391 4.40591L5.14454 18.0268C5.02266 18.1996 4.975 18.4136 5.0125 18.6213C5.04922 18.8291 5.16719 19.0135 5.34141 19.1347L11.4078 23.3572ZM12.2852 29.5854C11.0492 28.7082 10.7609 26.9949 11.643 25.7663L13.2938 23.4683C13.7203 22.8734 14.3555 22.4792 15.0813 22.3588C15.8055 22.2365 16.5367 22.4062 17.1352 22.831C18.3689 23.7063 18.6568 25.4146 17.7813 26.6432L16.4157 28.5459L16.1274 28.9474C15.2438 30.1768 13.5203 30.4614 12.2852 29.5854ZM19.375 35.2066C18.6492 35.327 17.9195 35.1596 17.3211 34.7348C16.7227 34.31 16.3258 33.6786 16.2047 32.9575C16.0836 32.236 16.2524 31.511 16.6805 30.9157L18.3893 28.5348L19.0797 27.5739C19.0808 27.5723 19.0814 27.5706 19.0825 27.569L19.8281 26.5301C20.7125 25.3007 22.436 25.0161 23.6703 25.8921C24.2696 26.3169 24.6656 26.9483 24.7867 27.6698C24.9086 28.3909 24.7399 29.1159 24.3125 29.7112L21.1625 34.0972C20.736 34.6921 20.1008 35.0862 19.375 35.2066ZM25.161 39.3119C24.4367 39.4334 23.7055 39.2653 23.107 38.8401C21.8711 37.9633 21.5828 36.25 22.4649 35.021L25.6141 30.6354C26.1516 29.8875 27 29.4891 27.8602 29.4891C28.4141 29.4891 28.9727 29.6541 29.4563 29.9974C30.6922 30.8746 30.9805 32.5882 30.0985 33.8168L29.3534 34.8542C29.3517 34.8566 29.3494 34.8583 29.3477 34.8606L28.2342 36.4125L26.9485 38.2025C26.5219 38.7974 25.8867 39.1915 25.161 39.3119ZM33.4852 41.2635C32.6016 42.4933 30.8774 42.7776 29.643 41.9015C28.4071 41.0243 28.1188 39.3107 29.0016 38.0821L30.1381 36.4982L30.6523 35.7822C31.0804 35.1885 31.7136 34.7952 32.4383 34.675C33.1672 34.5535 33.8938 34.7224 34.4922 35.1472C35.0914 35.572 35.4875 36.2034 35.6086 36.9245C35.7261 37.62 35.5676 38.3159 35.1729 38.8987C35.1677 38.9055 35.1597 38.9087 35.1547 38.9158C35.1429 38.9326 35.1413 38.9526 35.1309 38.97L33.4852 41.2635ZM44.5743 6.25234L48.236 7.77803C51.2032 9.01442 54.5485 8.6564 57.1836 6.82278L58.4094 5.96965L67.1126 18.3262L62.1625 22.2365L47.7672 12.1827C46.4125 11.2511 44.8282 10.7859 43.2438 10.7859C41.6453 10.7859 40.0469 11.26 38.6852 12.2068L31.9875 16.8634C30.7422 17.7282 29.0235 17.428 28.1516 16.1916C27.2805 14.9545 27.5836 13.2439 28.8289 12.3768L36.3266 7.13304C38.7563 5.44271 41.8391 5.11342 44.5743 6.25234ZM15.5906 5.96965L16.8164 6.82278C19.4508 8.6564 22.7969 9.01442 25.7641 7.77803L29.4258 6.25234C31.2787 5.48149 33.3255 5.39582 35.2197 5.96266L27.9102 11.0752C25.9438 12.444 25.4641 15.1486 26.8406 17.1038C27.5078 18.0505 28.5063 18.6827 29.6516 18.8834C30.7969 19.0834 31.9524 18.8295 32.9047 18.1666L39.6024 13.5099C41.768 12.0048 44.6836 11.9967 46.8524 13.4874L61.7321 23.8799C61.7326 23.8802 61.7332 23.8803 61.7336 23.8807C62.336 24.3 62.7383 24.9275 62.8657 25.6479C62.9938 26.3682 62.8313 27.0947 62.4094 27.6939C61.9875 28.2927 61.3563 28.6926 60.6321 28.8196C59.9079 28.9474 59.1766 28.7862 58.5735 28.3661L56.1075 26.6497C56.1074 26.6496 56.1072 26.6494 56.1071 26.6493L48.7305 21.515C48.3696 21.2638 47.8703 21.3512 47.6164 21.7104C47.3633 22.0703 47.4508 22.5662 47.8133 22.8182L48.87 23.5537C48.8701 23.5538 48.8702 23.554 48.8704 23.5541L55.1904 27.9529C55.7923 28.3724 56.1946 28.9996 56.3219 29.7197C56.45 30.4401 56.2875 31.1666 55.8657 31.7654C55.4438 32.3645 54.8125 32.7645 54.0883 32.8915C53.361 33.0192 52.6313 32.8569 52.0297 32.4379L44.6539 27.3036C44.2938 27.0524 43.793 27.139 43.5399 27.499C43.2868 27.8589 43.3743 28.3548 43.7368 28.6068L49.3508 32.5148C49.9532 32.9342 50.3555 33.5617 50.4829 34.282C50.611 35.0024 50.4485 35.7289 50.0266 36.3277C49.6047 36.9269 48.9735 37.3268 48.2485 37.4538C47.525 37.5812 46.7922 37.4188 46.1907 37.0002L43.9598 35.4473C43.9597 35.4472 43.9596 35.4471 43.9594 35.447L42.6088 34.5069L40.5766 33.0922C40.2157 32.841 39.7157 32.9276 39.4625 33.2876C39.2094 33.6475 39.2969 34.1434 39.6594 34.3954L43.0426 36.7505C44.286 37.6162 44.589 39.3264 43.718 40.563C43.2961 41.1622 42.6649 41.5622 41.9407 41.6891C41.2172 41.8173 40.486 41.6557 39.8821 41.2352L36.8692 39.1383C37.2166 38.3681 37.3302 37.5138 37.1867 36.6624C36.9953 35.5219 36.3688 34.5243 35.4219 33.8526C34.4262 33.1459 33.2303 32.9227 32.1108 33.126C32.4578 31.4926 31.8376 29.7332 30.386 28.7027C29.1902 27.8536 27.7072 27.7012 26.4155 28.1504C26.4227 26.7903 25.7957 25.4462 24.6 24.5975C23.1481 23.5675 21.2735 23.5568 19.8324 24.4131C19.6623 23.295 19.0615 22.2433 18.0649 21.5364C17.118 20.865 15.9656 20.5994 14.818 20.7901C13.8701 20.9472 13.0324 21.413 12.3849 22.0958L6.91407 18.2878L15.5906 5.96965Z" fill="url(#paint0_linear_47_334)"/>
<defs>
<linearGradient id="paint0_linear_47_334" x1="6.68421" y1="4" x2="73.9846" y2="15.9666" gradientUnits="userSpaceOnUse">
<stop stop-color="#1598F9"/>
<stop offset="1" stop-color="#007DD8"/>
</linearGradient>
</defs>
</svg>
