<svg width="249" height="33" viewBox="0 0 249 33" fill="none" xmlns="http://www.w3.org/2000/svg">
<path d="M147.736 27.92V14.072H142.144V11H157.048V14.072H151.456V27.92H147.736Z" fill="#1193F3"/>
<path d="M160.834 28.184C159.954 28.184 159.178 28.016 158.506 27.68C157.834 27.344 157.298 26.888 156.898 26.312C156.514 25.736 156.322 25.088 156.322 24.368C156.322 23.52 156.546 22.84 156.994 22.328C157.442 21.816 158.17 21.456 159.178 21.248C160.186 21.024 161.522 20.912 163.186 20.912H164.05V20.504C164.05 19.8 163.89 19.304 163.57 19.016C163.25 18.712 162.706 18.56 161.938 18.56C161.298 18.56 160.618 18.664 159.898 18.872C159.194 19.064 158.49 19.36 157.786 19.76L156.802 17.336C157.218 17.064 157.722 16.816 158.314 16.592C158.922 16.368 159.554 16.2 160.21 16.088C160.866 15.96 161.49 15.896 162.082 15.896C163.906 15.896 165.266 16.312 166.162 17.144C167.058 17.96 167.506 19.232 167.506 20.96V27.92H164.122V26.144C163.882 26.768 163.474 27.264 162.898 27.632C162.338 28 161.65 28.184 160.834 28.184ZM161.65 25.76C162.322 25.76 162.89 25.528 163.354 25.064C163.818 24.6 164.05 24 164.05 23.264V22.784H163.21C161.978 22.784 161.106 22.896 160.594 23.12C160.082 23.328 159.826 23.696 159.826 24.224C159.826 24.672 159.978 25.04 160.282 25.328C160.602 25.616 161.058 25.76 161.65 25.76Z" fill="#1193F3"/>
<path d="M170.607 32.24V16.136H174.159V17.888C174.479 17.28 174.967 16.8 175.623 16.448C176.295 16.08 177.047 15.896 177.879 15.896C178.903 15.896 179.799 16.144 180.567 16.64C181.351 17.136 181.959 17.84 182.391 18.752C182.823 19.664 183.039 20.752 183.039 22.016C183.039 23.28 182.823 24.376 182.391 25.304C181.959 26.216 181.351 26.928 180.567 27.44C179.799 27.936 178.903 28.184 177.879 28.184C177.095 28.184 176.375 28.016 175.719 27.68C175.079 27.344 174.583 26.896 174.231 26.336V32.24H170.607ZM176.799 25.472C177.567 25.472 178.191 25.192 178.671 24.632C179.151 24.072 179.391 23.2 179.391 22.016C179.391 20.848 179.151 19.992 178.671 19.448C178.191 18.888 177.567 18.608 176.799 18.608C176.015 18.608 175.383 18.888 174.903 19.448C174.423 19.992 174.183 20.848 174.183 22.016C174.183 23.2 174.423 24.072 174.903 24.632C175.383 25.192 176.015 25.472 176.799 25.472Z" fill="#1193F3"/>
<path d="M189.615 28.184C188.735 28.184 187.959 28.016 187.287 27.68C186.615 27.344 186.079 26.888 185.679 26.312C185.295 25.736 185.103 25.088 185.103 24.368C185.103 23.52 185.327 22.84 185.775 22.328C186.223 21.816 186.951 21.456 187.959 21.248C188.967 21.024 190.303 20.912 191.967 20.912H192.831V20.504C192.831 19.8 192.671 19.304 192.351 19.016C192.031 18.712 191.487 18.56 190.719 18.56C190.079 18.56 189.399 18.664 188.679 18.872C187.975 19.064 187.271 19.36 186.567 19.76L185.583 17.336C185.999 17.064 186.503 16.816 187.095 16.592C187.703 16.368 188.335 16.2 188.991 16.088C189.647 15.96 190.271 15.896 190.863 15.896C192.687 15.896 194.047 16.312 194.943 17.144C195.839 17.96 196.287 19.232 196.287 20.96V27.92H192.903V26.144C192.663 26.768 192.255 27.264 191.679 27.632C191.119 28 190.431 28.184 189.615 28.184ZM190.431 25.76C191.103 25.76 191.671 25.528 192.135 25.064C192.599 24.6 192.831 24 192.831 23.264V22.784H191.991C190.759 22.784 189.887 22.896 189.375 23.12C188.863 23.328 188.607 23.696 188.607 24.224C188.607 24.672 188.759 25.04 189.063 25.328C189.383 25.616 189.839 25.76 190.431 25.76Z" fill="#1193F3"/>
<path d="M204.484 27.92L207.46 21.824C208.196 20.32 209.14 19.272 210.292 18.68L205.348 11H209.428L213.724 17.984H215.212V11H218.764V17.984H220.252L224.548 11H228.628L223.66 18.68C224.828 19.272 225.772 20.32 226.492 21.824L229.468 27.92H225.46L223.228 23.12C222.876 22.368 222.452 21.84 221.956 21.536C221.476 21.216 220.86 21.056 220.108 21.056H218.764V27.92H215.212V21.056H213.868C213.1 21.056 212.468 21.216 211.972 21.536C211.492 21.856 211.076 22.384 210.724 23.12L208.516 27.92H204.484Z" fill="#1193F3"/>
<path d="M229.757 32V24.992H231.461C232.885 23.216 233.597 20.04 233.597 15.464V11H246.005V24.992H248.405V32H245.141V27.92H233.045V32H229.757ZM235.205 24.992H242.261V13.904H237.029V15.824C237.029 17.968 236.877 19.792 236.573 21.296C236.269 22.784 235.813 24.016 235.205 24.992Z" fill="#1193F3"/>
<mask id="mask0_105_2" style="mask-type:alpha" maskUnits="userSpaceOnUse" x="0" y="0" width="130" height="32">
<path d="M0 31.873L84.5119 6.49754L97.016 26.2122L45.2352 31.889L100.683 31.9933L100.687 32H130L117.163 16H101.457L95.6762 7.60324H110.426L104.329 0.00384807L83.2611 0L82.7003 0.217514L0 31.873Z" fill="url(#paint0_linear_105_2)"/>
<path d="M82.9507 14.2762L27.3869 31.9998L86.042 19.1238L82.9507 14.2762Z" fill="url(#paint1_linear_105_2)"/>
</mask>
<g mask="url(#mask0_105_2)">
<path d="M18.8702 78.1079L29.4721 73.0081L2.48886 30.4829L-8.11305 35.5827L18.8702 78.1079Z" fill="#1A4464"/>
<path d="M40.0741 67.9084L50.676 62.8086L23.6927 20.2833L13.0908 25.3831L40.0741 67.9084Z" fill="#195C8F"/>
<path d="M61.2778 57.7088L71.8797 52.609L44.8965 10.0837L34.2945 15.1835L61.2778 57.7088Z" fill="#1774B9"/>
<path d="M82.4817 47.5092L93.0836 42.4094L66.1003 -0.115874L55.4984 4.98392L82.4817 47.5092Z" fill="#168CE3"/>
<path d="M29.472 73.0082L40.0739 67.9084L13.0907 25.3831L2.48876 30.4829L29.472 73.0082Z" fill="#19517A"/>
<path d="M50.676 62.8086L61.2779 57.7088L34.2946 15.1836L23.6927 20.2834L50.676 62.8086Z" fill="#1868A4"/>
<path d="M71.8798 52.609L82.4817 47.5092L55.4984 4.98398L44.8965 10.0838L71.8798 52.609Z" fill="#1780CE"/>
<path d="M93.0836 42.4094L136 30.9999L110.5 -7L66.1003 -0.115847L93.0836 42.4094Z" fill="url(#paint2_linear_105_2)"/>
</g>
<defs>
<linearGradient id="paint0_linear_105_2" x1="3.42105" y1="-3.67924e-06" x2="120.569" y2="52.8888" gradientUnits="userSpaceOnUse">
<stop offset="0.359375" stop-color="#007DD8"/>
<stop offset="1" stop-color="#1598F9"/>
</linearGradient>
<linearGradient id="paint1_linear_105_2" x1="3.42105" y1="-3.67924e-06" x2="120.569" y2="52.8888" gradientUnits="userSpaceOnUse">
<stop offset="0.359375" stop-color="#007DD8"/>
<stop offset="1" stop-color="#1598F9"/>
</linearGradient>
<linearGradient id="paint2_linear_105_2" x1="113.695" y1="41.7292" x2="88.4053" y2="-10.8451" gradientUnits="userSpaceOnUse">
<stop stop-color="#8FD0FF"/>
<stop offset="1" stop-color="#39ABFF"/>
</linearGradient>
</defs>
</svg>
