<svg width="21" height="21" viewBox="0 0 21 21" fill="none" xmlns="http://www.w3.org/2000/svg">
<path d="M14.1854 13.3923C13.8505 13.0584 13.3082 13.0582 12.9732 13.3923C11.4368 14.9281 11.505 14.8477 11.4621 14.909C10.8395 15.4254 9.3686 15.0756 7.6733 13.385C6.61042 12.325 6.19411 11.4773 6.0319 10.953C5.92263 10.5993 5.79844 9.94701 6.19493 9.5516C6.21721 9.52939 6.2362 9.50514 6.25252 9.47949L7.65103 8.08461C7.98523 7.75133 7.98523 7.20903 7.65103 6.87575L4.13993 3.3741C3.80573 3.04099 3.26195 3.04099 2.92775 3.3741C2.59233 3.70861 1.94846 4.35071 1.46411 4.83374C0.21781 6.07683 -0.218145 7.69148 0.203906 9.50313C0.672961 11.5173 2.19132 13.8152 4.71661 16.3338C7.20101 18.8114 9.5318 20.2981 11.6441 20.7524C13.3374 21.1166 15.0201 20.8017 16.2477 19.5772C16.2702 19.5549 16.2892 19.5305 16.3055 19.5048L17.704 18.1102C18.0382 17.7769 18.0382 17.2346 17.704 16.9013L14.1854 13.3923ZM3.51891 3.96385C3.52728 3.95571 3.54057 3.95591 3.54852 3.96385L7.05963 7.46554C7.06779 7.47368 7.06779 7.48672 7.05963 7.49486L5.89175 8.65971L2.35103 5.12869L3.51891 3.96385ZM11.8204 19.9371C9.86801 19.5171 7.67675 18.1063 5.30797 15.744C2.89486 13.3375 1.45164 11.1744 1.01856 9.31453C0.694781 7.92394 0.948709 6.72077 1.77316 5.73193L5.34476 9.29354C5.04486 9.7953 5.00318 10.4559 5.23283 11.1987C5.50513 12.08 6.14473 13.0399 7.08194 13.9748C8.01935 14.9094 8.98195 15.5472 9.86563 15.8188C10.503 16.0148 11.2025 16.0476 11.7757 15.707L15.3442 19.266C14.4188 20.0036 13.2099 20.236 11.8204 19.9371ZM17.1126 17.5205L15.9446 18.6853L12.3967 15.1468L13.5645 13.9821C13.5723 13.9741 13.5856 13.9737 13.594 13.9821L17.1126 17.4911C17.1208 17.499 17.1208 17.5123 17.1126 17.5205Z" fill="#1E9DFA"/>
<path d="M15.9348 8.80487C15.9348 9.03507 16.1219 9.22188 16.3529 9.22188C16.5837 9.22188 16.7711 9.03507 16.7711 8.80487C16.7711 6.27553 14.7077 4.21777 12.1713 4.21777C11.9403 4.21777 11.7532 4.40437 11.7532 4.63478C11.7532 4.86499 11.9403 5.05179 12.1713 5.05179C14.2464 5.05179 15.9348 6.73533 15.9348 8.80487Z" fill="#1E9DFA"/>
<path d="M12.1713 2.13257C11.9403 2.13257 11.7532 2.31921 11.7532 2.54958C11.7532 2.77978 11.9403 2.96659 12.1713 2.96659C15.3993 2.96659 18.0255 5.58554 18.0255 8.80471C18.0255 9.03491 18.2126 9.22172 18.4436 9.22172C18.6745 9.22172 18.8618 9.03491 18.8618 8.80471C18.8618 5.12558 15.8604 2.13257 12.1713 2.13257Z" fill="#1E9DFA"/>
<path d="M12.1713 0.0476074C11.9403 0.0476074 11.7532 0.234208 11.7532 0.464616C11.7532 0.695024 11.9403 0.881625 12.1713 0.881625C16.5521 0.881625 20.1161 4.43591 20.1161 8.80483C20.1161 9.03503 20.3034 9.22184 20.5342 9.22184C20.7653 9.22184 20.9524 9.03503 20.9524 8.80483C20.9524 3.97608 17.0133 0.0476074 12.1713 0.0476074Z" fill="#1E9DFA"/>
<path d="M12.5895 10.4727C13.7422 10.4727 14.6803 9.5374 14.6803 8.38782C14.6803 7.23803 13.7423 6.30273 12.5895 6.30273C11.4366 6.30273 10.4988 7.23803 10.4988 8.38782C10.4989 9.5374 11.4366 10.4727 12.5895 10.4727ZM12.5895 7.13679C13.2812 7.13679 13.844 7.69782 13.844 8.38782C13.844 9.07761 13.2812 9.63884 12.5895 9.63884C11.8978 9.63884 11.3351 9.07761 11.3351 8.38782C11.3351 7.69782 11.8978 7.13679 12.5895 7.13679Z" fill="#1E9DFA"/>
</svg>
