<svg width="44" height="48" viewBox="0 0 44 48" fill="none" xmlns="http://www.w3.org/2000/svg">
<g clip-path="url(#clip0_47_382)">
<path d="M14.662 24.1021H32.7557C33.2288 24.1021 33.6124 23.7239 33.6124 23.2573V13.7452C33.6124 13.2786 33.2288 12.9004 32.7557 12.9004H14.662C14.1888 12.9004 13.8052 13.2786 13.8052 13.7452V23.2573C13.8052 23.7239 14.1888 24.1021 14.662 24.1021ZM15.5188 14.5899H31.8989V22.4125H15.5188V14.5899Z" fill="url(#paint0_linear_47_382)"/>
<path d="M17.3011 36.0562C19.4359 36.0562 21.1727 34.3446 21.1727 32.241C21.1727 30.1374 19.4359 28.4259 17.3011 28.4259C15.1664 28.4259 13.4296 30.1374 13.4296 32.241C13.4296 34.3446 15.1663 36.0562 17.3011 36.0562ZM17.3011 30.1153C18.4912 30.1153 19.4592 31.0686 19.4592 32.2407C19.4592 33.4131 18.491 34.3663 17.3011 34.3663C16.1112 34.3663 15.1431 33.4131 15.1431 32.2407C15.1431 31.069 16.1112 30.1153 17.3011 30.1153Z" fill="url(#paint1_linear_47_382)"/>
<path d="M29.9653 28.4258C27.8305 28.4258 26.0935 30.1373 26.0935 32.2409C26.0935 34.3447 27.8301 36.0561 29.9653 36.0561C32.0997 36.0561 33.8369 34.3446 33.8369 32.2409C33.8369 30.1373 32.1001 28.4258 29.9653 28.4258ZM29.9653 34.3667C28.7752 34.3667 27.8071 33.4132 27.8071 32.241C27.8071 31.069 28.7752 30.1154 29.9653 30.1154C31.1553 30.1154 32.1234 31.069 32.1234 32.241C32.1234 33.4132 31.1553 34.3667 29.9653 34.3667Z" fill="url(#paint2_linear_47_382)"/>
<path d="M42.9431 55.8377H38.3228L34.313 42.2467C37.2752 42.0624 39.6285 39.6321 39.6285 36.6699V12.2916C39.6285 9.20956 37.0816 6.70215 33.9516 6.70215H33.2642V2.41384C33.2642 1.26688 32.0527 0.368408 30.506 0.368408H16.7605C15.2139 0.368408 14.0023 1.26688 14.0023 2.41384V6.70215H13.315C10.1848 6.70215 7.63819 9.20956 7.63819 12.2916V36.6699C7.63819 39.5452 9.85515 41.9196 12.6944 42.2251L8.76276 55.5527C8.73474 55.648 8.72531 55.7441 8.73094 55.8377H1.05648C0.583296 55.8377 0.199707 56.216 0.199707 56.6825C0.199707 57.1491 0.583296 57.5273 1.05648 57.5273H37.622C37.6417 57.5287 37.6609 57.532 37.6807 57.532C37.7031 57.532 37.7258 57.5291 37.7484 57.5273H42.9431C43.4161 57.5273 43.7999 57.1491 43.7999 56.6825C43.7999 56.216 43.4164 55.8377 42.9431 55.8377ZM15.7158 2.42471C15.764 2.31838 16.1399 2.05795 16.7605 2.05795H30.5059C31.1275 2.05795 31.5029 2.31826 31.5505 2.42434V6.69769H15.7158V2.42471ZM9.35173 36.6699V12.2916C9.35173 10.1412 11.1297 8.3917 13.315 8.3917H33.9515C36.1367 8.3917 37.9149 10.1412 37.9149 12.2916V36.6699C37.9149 38.8202 36.137 40.5696 33.9515 40.5696H13.315C11.1297 40.5696 9.35173 38.8202 9.35173 36.6699ZM33.7734 46.4655H13.228L14.469 42.2592H32.5323L33.7734 46.4655ZM10.4633 55.8377L12.7296 48.1551H34.2716L36.5384 55.8377H10.4633Z" fill="url(#paint3_linear_47_382)"/>
</g>
<defs>
<linearGradient id="paint0_linear_47_382" x1="14.3265" y1="12.9004" x2="35.0148" y2="16.9657" gradientUnits="userSpaceOnUse">
<stop stop-color="#1598F9"/>
<stop offset="1" stop-color="#007DD8"/>
</linearGradient>
<linearGradient id="paint1_linear_47_382" x1="13.6334" y1="28.4259" x2="21.9277" y2="29.3613" gradientUnits="userSpaceOnUse">
<stop stop-color="#1598F9"/>
<stop offset="1" stop-color="#007DD8"/>
</linearGradient>
<linearGradient id="paint2_linear_47_382" x1="26.2973" y1="28.4258" x2="34.5919" y2="29.3612" gradientUnits="userSpaceOnUse">
<stop stop-color="#1598F9"/>
<stop offset="1" stop-color="#007DD8"/>
</linearGradient>
<linearGradient id="paint3_linear_47_382" x1="1.34708" y1="0.368402" x2="48.3078" y2="4.34891" gradientUnits="userSpaceOnUse">
<stop stop-color="#1598F9"/>
<stop offset="1" stop-color="#007DD8"/>
</linearGradient>
<clipPath id="clip0_47_382">
<rect width="44" height="48" fill="white"/>
</clipPath>
</defs>
</svg>
